<?xml version="1.0" encoding="UTF-8"?>
<svg id="Ebene_2" data-name="Ebene 2" xmlns="http://www.w3.org/2000/svg" version="1.1" viewBox="0 0 249 248.5">
  <defs>
    <style>
      .cls-1 {
        fill: #fff;
        stroke-width: 0px;
      }
    </style>
  </defs>
  <path class="cls-1" d="M216.2,190.1c-3.1,0-5.4-.9-7.3-2.5-1.9-1.6-2.8-4.1-2.8-7.3s.9-5.7,2.8-7.4c1.7-1.6,4.2-2.5,7.3-2.5s5.4.9,7.1,2.5c.9.7,1.5,1.7,1.9,2.9,8.1-15.7,12.8-33.5,12.8-52.4,0-62.6-50.8-113.4-113.4-113.4S11.1,60.8,11.1,123.4s50.8,113.4,113.4,113.4c37.9,0,71.2-18.4,91.7-46.7.1,0,0,0,0,0ZM155.5,188.8h-17.9v-32c0-4.1-.4-7-1.3-8.9-.9-1.9-2.2-2.8-3.9-2.8-2.6,0-4.4,1.3-5.4,3.9-1,2.6-1.5,6.7-1.5,12.2v27.5h-18v-32c0-7.9-1.7-11.8-5.1-11.8s-4.5,1.5-5.4,4.4c-1,2.9-1.5,7.4-1.5,13.5v25.7h-18v-57.9h13.8l2.2,7.1h.9c1.2-2.6,3.1-4.7,5.7-6,2.6-1.5,5.7-2.2,9.3-2.2s6.7.7,8.9,2.2,3.9,3.3,5.1,5.7h1c1.5-2.5,3.3-4.4,5.7-5.7s5.1-2,8.4-2c5.5,0,9.7,1.7,12.7,5.2,2.9,3.5,4.4,8.9,4.4,16.1v37.8h0ZM199.2,186.6c-1.9,1-4.1,1.7-6.3,2.3s-4.7.9-7.4.9c-5.7,0-9.9-1.6-12.7-4.7-2.8-3.2-4.2-8.3-4.2-15.4v-24.6h-6.1v-8.7l7.7-4.9,4.4-12.2h12.1v11.6h11.9v14.3h-11.9v24.1c0,3.8,1.6,5.7,4.7,5.7s2.6-.1,3.9-.6c1.3-.4,2.8-.9,4.2-1.5v13.7h-.3Z"/>
</svg>